<?xml version="1.0" standalone="no"?>
<!DOCTYPE svg PUBLIC "-//W3C//DTD SVG 20010904//EN"
 "http://www.w3.org/TR/2001/REC-SVG-20010904/DTD/svg10.dtd">
<svg version="1.0" xmlns="http://www.w3.org/2000/svg"
 width="389.000000pt" height="498.000000pt" viewBox="0 0 389.000000 498.000000"
 preserveAspectRatio="xMidYMid meet">
<metadata>
Created by potrace 1.16, written by Peter Selinger 2001-2019
</metadata>
<g transform="translate(0.000000,498.000000) scale(0.100000,-0.100000)"
fill="#000000" stroke="none">
<path d="M1919 4711 c-54 -36 -137 -120 -100 -101 l25 13 -25 -30 c-13 -17
-27 -26 -30 -20 -4 5 -8 5 -10 -2 -2 -6 -38 -20 -79 -32 -152 -42 -283 -136
-342 -245 -44 -81 -72 -197 -72 -300 -1 -72 3 -96 16 -110 20 -24 61 -161 52
-176 -4 -7 -3 -8 4 -4 12 7 36 -29 28 -43 -3 -4 6 -19 21 -32 14 -13 23 -18
18 -10 -5 10 -4 12 4 7 6 -4 9 -11 7 -15 -3 -4 8 -21 25 -37 l31 -29 -9 40
c-12 60 -7 133 11 151 18 17 17 19 22 -61 7 -102 4 -185 -9 -248 -1 -6 4 -11
11 -9 10 2 10 -2 2 -18 -6 -11 -7 -20 -1 -20 5 0 7 -9 4 -20 -3 -13 0 -20 8
-20 11 0 11 -2 -1 -10 -10 -6 -11 -10 -2 -10 6 0 12 -5 12 -11 0 -5 -5 -7 -11
-3 -13 8 -75 -50 -97 -91 -21 -40 -31 -119 -22 -177 l7 -48 -56 -29 c-31 -15
-83 -36 -116 -46 -33 -9 -73 -24 -90 -33 -16 -9 -57 -17 -90 -19 -33 -2 -65
-5 -72 -5 -14 -2 -26 -45 -17 -60 4 -7 3 -8 -4 -4 -8 5 -12 -3 -12 -23 0 -17
5 -31 10 -31 6 0 10 -5 10 -11 0 -5 -4 -8 -9 -5 -5 3 -11 -2 -13 -12 -3 -11
-27 -23 -67 -35 -34 -10 -60 -21 -57 -26 3 -4 -5 -6 -18 -4 -32 6 -74 -16 -55
-28 10 -6 10 -9 2 -9 -7 0 -36 -22 -63 -50 -37 -35 -67 -81 -106 -158 -58
-117 -64 -153 -38 -205 l17 -32 -22 19 c-21 19 -21 19 -22 0 -2 -61 -13 -122
-25 -146 -19 -36 -18 -68 3 -98 12 -17 13 -25 5 -28 -7 -2 -12 -11 -12 -20 -1
-10 -6 -4 -13 12 l-13 30 -17 -24 c-17 -25 -22 -65 -11 -94 3 -9 9 -14 13 -12
3 2 14 -7 24 -20 10 -14 13 -23 6 -22 -11 3 -26 -32 -33 -77 -6 -38 -11 -49
-28 -69 -11 -12 -17 -36 -17 -65 0 -25 -2 -61 -4 -78 -2 -18 -4 -58 -5 -89 -1
-30 -6 -53 -11 -50 -5 3 -12 -1 -15 -10 -8 -22 -9 -22 22 -18 l27 4 -27 -11
c-33 -13 -37 -39 -8 -46 29 -8 22 -47 -18 -103 -31 -41 -32 -48 -26 -100 3
-30 10 -73 14 -95 7 -37 8 -37 10 -10 1 17 6 41 11 55 5 16 6 5 2 -30 -13
-106 2 -235 30 -258 9 -8 12 -1 11 31 -1 32 0 34 3 9 2 -18 8 -30 14 -27 5 4
9 -4 9 -17 0 -13 7 -36 15 -51 9 -18 10 -25 2 -20 -7 4 -7 0 2 -10 7 -9 17
-15 21 -12 10 6 20 -7 25 -35 5 -25 34 -66 74 -104 31 -30 32 -30 89 -18 102
21 99 23 107 -64 4 -41 4 -98 1 -125 -5 -39 -4 -49 5 -43 9 5 10 2 5 -11 -3
-10 -14 -59 -22 -109 -9 -50 -18 -94 -21 -98 -2 -5 527 -8 1177 -8 l1182 0
-35 62 c-63 116 -114 191 -120 177 -3 -8 -3 1 0 18 3 19 0 39 -6 47 -9 11 -8
15 5 20 24 9 31 7 14 -4 -13 -9 -13 -11 0 -19 10 -7 20 -4 32 9 10 11 18 23
18 27 0 10 3 11 146 21 77 5 118 13 137 25 30 19 51 53 42 67 -3 6 -1 10 5 10
6 0 8 5 5 10 -4 6 1 33 10 61 10 29 14 61 10 77 -6 26 -6 26 9 7 14 -19 15
-18 6 15 -13 46 -12 50 5 20 14 -25 14 -25 16 15 1 34 2 36 8 15 4 -14 4 -38
-1 -54 -4 -16 -6 -31 -4 -33 8 -9 56 61 66 95 12 46 13 113 1 94 -6 -10 -10
-7 -15 13 -4 15 -17 42 -30 59 -40 54 -40 62 -1 26 l37 -35 -26 52 c-14 28
-40 63 -58 78 -18 15 -24 22 -13 17 28 -14 69 -61 91 -102 15 -29 19 -32 22
-15 2 10 -1 21 -7 23 -6 2 -11 8 -11 14 0 6 -14 33 -31 60 -16 28 -28 55 -25
61 3 8 5 8 5 -1 1 -7 14 -32 30 -55 15 -23 30 -49 33 -56 2 -8 10 6 17 31 12
43 12 48 -14 86 -15 22 -40 45 -56 51 -39 13 -37 20 6 16 29 -3 35 0 35 16 0
33 -29 78 -60 94 -42 22 -38 28 6 10 45 -19 57 -12 38 23 -7 15 -14 32 -14 39
0 12 -21 66 -41 105 -12 23 -12 51 0 44 5 -3 11 3 14 14 3 13 1 18 -5 13 -7
-4 -8 -1 -3 7 18 29 16 81 -4 116 -25 42 -28 76 -6 68 8 -4 15 -1 15 6 0 20
-31 43 -69 51 l-36 7 34 1 33 1 -17 26 c-9 14 -14 32 -11 40 3 8 2 14 -2 14
-14 0 -12 56 2 97 12 33 12 44 0 71 -7 18 -18 32 -24 32 -5 0 -10 5 -10 11 0
5 5 7 12 3 7 -5 8 -3 3 7 -5 7 -9 25 -10 39 0 14 -5 34 -11 44 -11 19 -12 19
-18 -2 -4 -12 -12 -22 -17 -22 -6 0 -7 -5 -3 -12 4 -6 3 -8 -4 -4 -6 3 -15 -2
-21 -11 -10 -17 -10 -17 -11 0 0 9 4 17 8 17 8 0 24 32 53 108 5 13 7 27 5 31
-3 4 -7 19 -10 33 -2 14 -13 35 -23 47 -10 12 -16 23 -13 24 3 1 -5 18 -18 38
-12 20 -20 43 -17 52 6 13 -36 57 -55 57 -4 0 -15 -18 -25 -40 -16 -36 -45
-72 -45 -56 0 3 11 29 24 56 21 44 23 55 13 88 -6 20 -10 43 -8 50 1 7 -2 11
-6 10 -4 -1 -27 2 -51 6 -30 6 -42 12 -38 21 6 16 -24 8 -36 -9 -5 -7 -8 -7
-8 2 0 24 -2 27 -17 45 -22 23 -42 22 -52 -5 -6 -18 -9 -19 -14 -5 -4 10 -2
17 3 17 6 0 6 9 1 23 -5 14 -15 21 -28 19 -10 -1 -35 4 -56 13 -28 12 -35 19
-32 37 4 16 2 19 -7 10 -21 -21 -27 -13 -22 30 l5 42 -22 -27 c-11 -16 -23
-26 -25 -24 -3 2 -17 -7 -33 -22 -15 -14 -41 -33 -56 -41 -16 -8 -40 -25 -54
-38 -13 -12 -34 -21 -44 -20 -11 2 -21 -3 -23 -10 -1 -7 0 -8 3 -2 2 5 9 7 14
4 15 -9 -10 -34 -27 -27 -10 4 -12 0 -8 -11 4 -10 -1 -18 -12 -23 -11 -4 -25
-14 -32 -22 -10 -13 -10 -11 0 12 7 17 17 26 26 22 8 -3 12 0 9 7 -2 7 8 31
23 53 15 22 35 55 44 73 9 18 21 30 27 26 6 -4 2 -14 -11 -26 -25 -23 -19 -38
7 -17 11 9 14 10 9 2 -4 -8 -2 -13 5 -13 6 0 9 8 6 20 -3 11 -1 20 5 20 5 0 3
7 -6 15 -23 23 -10 48 17 33 22 -11 22 -10 4 10 -14 15 -15 22 -6 28 8 4 10 3
5 -4 -4 -7 -3 -12 3 -12 6 0 10 16 9 36 -1 20 4 39 11 43 7 5 -6 17 -38 34
-61 34 -67 34 -74 0 -10 -46 -73 -134 -151 -208 -106 -101 -153 -135 -153
-109 0 7 5 10 10 7 6 -3 7 -1 4 5 -4 5 -16 8 -27 5 -11 -3 -17 -10 -13 -16 3
-6 1 -7 -5 -3 -7 4 -12 14 -12 22 0 8 -5 14 -10 14 -6 0 6 15 26 33 21 17 45
30 53 29 9 -2 13 -1 9 3 -10 11 133 156 145 148 6 -3 7 -2 4 4 -8 13 48 67 62
59 7 -4 9 -1 5 8 -3 8 4 28 16 44 24 32 30 84 11 90 -6 2 -9 8 -6 12 8 12 -15
99 -28 107 -5 3 -16 -3 -24 -13 -13 -17 -14 -17 -7 10 5 21 4 27 -5 22 -6 -4
-11 -16 -11 -26 0 -14 -5 -18 -16 -13 -9 3 -11 9 -6 12 10 6 37 55 60 106 7
16 10 26 6 22 -13 -12 -32 13 -27 34 5 16 8 18 14 7 6 -8 9 4 9 34 0 26 -5 50
-10 53 -6 4 -8 10 -5 15 3 5 7 79 9 165 3 95 9 162 15 168 8 8 11 7 11 -3 0
-13 2 -13 11 0 12 19 7 -205 -6 -234 -7 -16 -6 -17 14 -7 12 7 19 16 16 22 -5
8 7 13 27 11 3 -1 12 6 20 16 12 16 11 16 -6 2 -11 -8 -17 -10 -15 -5 8 20 84
114 97 119 7 3 10 1 7 -4 -3 -6 -4 -10 -1 -10 10 0 44 74 65 145 15 47 24 109
28 190 6 133 -6 205 -51 293 -26 51 -151 176 -167 167 -5 -4 -9 -2 -9 3 0 11
-139 72 -162 72 -7 0 -26 7 -41 15 -15 8 -25 10 -22 4 4 -6 -4 -7 -22 -4 -15
3 -60 9 -100 13 -69 7 -112 22 -64 22 12 0 19 4 16 10 -3 6 1 10 10 10 10 0
13 -5 9 -12 -5 -7 -2 -9 8 -5 9 3 22 0 29 -6 7 -7 5 -2 -5 10 -9 11 -29 24
-43 28 -14 3 -23 8 -20 11 2 3 29 -4 58 -16 58 -22 94 -26 84 -10 -4 6 -11 8
-16 5 -5 -4 -12 1 -15 10 -4 11 -13 14 -28 9 -11 -4 -18 -3 -14 1 4 5 0 14
-10 21 -10 8 -12 13 -4 14 6 0 12 5 12 11 0 5 -4 8 -9 4 -5 -3 -12 -1 -16 5
-4 6 -11 7 -17 4 -7 -5 -8 -2 -3 6 4 7 2 16 -6 21 -21 13 -29 11 -29 -10 0
-12 11 -23 28 -29 l27 -10 -27 -1 c-14 -1 -29 -7 -31 -13 -3 -7 -6 6 -6 30 -1
26 -5 41 -11 37 -5 -3 -10 -1 -10 4 0 6 -19 11 -43 11 -31 0 -56 -8 -88 -29z
m118 -472 c38 -11 78 -26 91 -32 13 -6 51 -12 85 -13 95 -4 98 -5 91 -15 -3
-6 2 -9 12 -8 22 4 64 -17 81 -40 8 -10 11 -50 10 -111 -2 -107 5 -136 33
-143 11 -3 20 -10 20 -17 0 -6 -5 -8 -12 -4 -8 5 -9 2 -5 -9 4 -10 -12 -2 -39
18 -25 19 -51 35 -57 35 -7 0 -25 7 -42 16 -40 21 -139 13 -197 -18 -24 -12
-47 -21 -52 -19 -5 1 -31 2 -57 3 -27 0 -47 4 -46 10 10 45 -171 77 -280 49
-34 -8 -64 -13 -67 -10 -3 3 0 25 8 50 8 24 19 63 25 87 7 23 16 42 22 42 6 0
8 -4 5 -8 -3 -5 1 -9 9 -9 8 0 15 6 15 14 0 7 10 13 21 13 19 0 20 2 8 17 -8
9 -9 14 -3 10 7 -4 15 0 18 9 4 9 13 14 21 10 8 -3 14 -2 14 2 -3 18 2 33 9
28 4 -2 23 13 42 35 35 40 35 40 92 35 32 -3 88 -15 125 -27z m-436 -369 c5 0
9 -28 9 -62 1 -141 90 -220 216 -191 24 6 44 7 44 4 0 -3 -9 -19 -19 -35 -19
-28 -19 -31 -3 -43 14 -11 14 -13 2 -12 -49 5 -81 -4 -116 -32 -22 -17 -40
-35 -40 -40 -3 -23 -6 -22 -20 3 -11 22 -20 26 -42 23 -49 -9 -59 10 -65 120
-4 93 13 337 21 288 2 -13 8 -23 13 -23z m96 3 c10 -2 36 2 58 7 58 16 120 1
121 -29 1 -21 -2 -22 -40 -16 -22 4 -50 9 -61 11 -15 4 -16 3 -7 -4 11 -7 6
-12 -20 -21 -30 -10 -31 -9 -14 4 11 8 15 15 8 15 -6 0 -24 -11 -39 -25 l-28
-24 41 -1 c22 0 46 6 53 13 11 10 14 10 18 0 7 -19 60 -16 67 3 4 9 10 14 14
10 10 -11 11 -66 1 -72 -5 -3 -9 -9 -9 -15 0 -15 42 -10 62 8 13 12 18 13 18
3 0 -7 -20 -33 -45 -56 -48 -46 -91 -61 -149 -50 -36 7 -110 59 -99 70 3 3 2
6 -3 6 -18 0 -17 126 1 161 13 23 19 28 25 19 5 -8 17 -15 27 -17z m570 13
c14 4 28 -2 42 -17 24 -26 38 -20 22 9 -9 18 -8 19 10 15 57 -15 79 -140 37
-214 -29 -52 -74 -72 -149 -67 -92 7 -141 65 -143 169 -1 48 3 62 23 83 23 24
69 38 56 17 -3 -5 -1 -12 4 -15 5 -4 12 -2 15 3 3 5 16 7 29 3 20 -5 21 -4 7
13 -14 17 -14 17 6 7 11 -6 30 -9 41 -6z m-209 -101 c27 -104 41 -130 81 -156
32 -19 36 -25 23 -32 -10 -4 22 -6 71 -4 69 3 93 8 115 24 35 26 61 70 71 125
l9 43 1 -60 c1 -80 -23 -233 -43 -270 -9 -16 -16 -23 -16 -15 0 9 -8 3 -18
-13 -10 -16 -23 -25 -31 -22 -8 3 -11 0 -8 -9 4 -10 1 -13 -9 -9 -16 6 -17 10
-14 68 1 33 -4 45 -27 65 -15 14 -25 21 -21 16 12 -14 -34 -34 -58 -25 -12 4
-34 6 -50 4 -16 -2 -35 2 -42 8 -9 7 -16 7 -20 0 -14 -21 -54 -35 -65 -24 -8
8 -7 11 4 11 8 0 2 10 -16 26 -23 20 -36 24 -62 19 -26 -5 -33 -2 -38 15 -4
12 -2 26 3 33 25 30 62 108 77 162 22 76 23 77 48 73 16 -2 25 -15 35 -53z
m137 -416 c7 -30 -9 -88 -29 -101 -5 -3 -20 -2 -32 2 -18 7 -22 6 -18 -4 8
-20 -12 -28 -26 -11 -8 10 -9 19 -3 28 31 40 25 46 -43 43 -35 -2 -67 0 -70 5
-3 5 -20 9 -38 9 -18 0 -40 6 -50 13 -16 11 -13 13 26 16 23 1 59 5 78 7 19 2
46 4 60 3 63 -2 105 3 116 14 14 14 23 7 29 -24z m-35 -398 c0 -5 -33 -42 -73
-83 -52 -54 -86 -80 -122 -93 -28 -10 -56 -23 -63 -29 -8 -5 -24 -11 -35 -13
-12 -2 -32 -5 -44 -8 -17 -4 -26 2 -38 24 -8 17 -15 38 -15 48 -1 10 -7 29
-14 42 -31 56 16 68 138 37 52 -14 93 -6 80 15 -11 18 16 37 54 37 20 1 53 8
72 16 40 18 60 20 60 7z m-1174 -1533 c15 -18 31 -33 37 -33 5 0 31 -32 56
-72 25 -39 58 -87 72 -105 14 -18 31 -48 38 -67 l11 -34 -43 8 c-23 4 -55 9
-70 10 -15 2 -33 8 -40 13 -7 6 -19 7 -26 3 -20 -13 -61 11 -67 39 -2 14 -14
52 -26 85 -30 88 -32 104 -15 111 9 3 13 13 10 25 -5 19 12 49 27 49 5 0 21
-15 36 -32z m1501 -392 c43 -13 104 -32 135 -41 64 -20 99 -55 78 -80 -31 -37
-191 -109 -290 -129 -47 -10 -95 -29 -131 -51 -31 -19 -61 -35 -66 -35 -5 0
-49 -16 -97 -35 -76 -31 -189 -63 -276 -79 -14 -2 -26 -5 -27 -5 -2 -1 -5 -1
-8 -1 -3 0 -35 -15 -73 -35 -37 -19 -97 -45 -133 -59 l-67 -24 -7 45 c-3 25
-3 115 1 201 4 87 7 198 7 249 l-1 92 136 -5 c76 -3 180 -1 232 4 52 5 188 10
302 11 192 1 213 -1 285 -23z m-17 -276 c0 -5 6 -15 13 -22 16 -18 28 -37 83
-136 53 -96 73 -150 58 -160 -6 -4 -14 -16 -18 -27 -6 -16 -9 -17 -16 -5 -8
12 -10 12 -10 -4 0 -13 -5 -17 -20 -13 -11 3 -20 1 -20 -3 0 -11 -25 -7 -42 8
-12 9 -15 9 -15 -3 0 -7 5 -13 11 -12 6 1 10 -4 8 -11 -1 -8 2 -11 7 -8 5 3 8
-5 7 -18 0 -13 -3 -24 -6 -24 -26 2 -32 -3 -21 -16 9 -11 9 -15 -1 -19 -7 -3
2 -8 20 -12 21 -5 30 -11 24 -17 -11 -11 -65 19 -57 32 3 4 -2 13 -10 20 -8 7
-15 9 -15 5 0 -4 -11 0 -25 9 -24 16 -25 16 -25 -5 0 -15 -4 -19 -16 -15 -8 3
-12 2 -9 -4 3 -6 15 -10 25 -10 10 0 22 -5 26 -12 4 -6 3 -8 -4 -4 -5 3 -12 0
-15 -6 -3 -10 -9 -9 -23 3 -10 9 -25 14 -33 11 -11 -4 -11 -6 0 -14 10 -6 3
-7 -19 -4 -18 2 -42 15 -53 28 -11 12 -17 17 -13 9 5 -9 3 -12 -4 -7 -7 4 -12
14 -12 22 0 8 -5 12 -10 9 -6 -4 -7 -11 -4 -17 4 -7 2 -8 -4 -4 -14 9 -15 16
-3 35 8 12 13 12 36 -3 15 -10 32 -15 40 -13 7 3 18 0 25 -6 10 -9 12 -8 7 6
-6 16 8 23 36 18 5 -1 6 3 2 9 -3 5 -13 10 -21 10 -9 0 -12 5 -8 13 4 6 4 9
-1 5 -4 -4 -14 -3 -21 3 -8 6 -14 6 -18 0 -4 -5 -2 -12 4 -16 6 -4 8 -11 4
-16 -3 -6 -12 -5 -21 3 -9 7 -31 13 -50 14 -19 2 -40 7 -47 13 -7 6 -16 8 -19
4 -4 -3 -13 0 -22 7 -11 9 -15 9 -15 1 0 -8 -5 -9 -19 -1 -27 14 -34 13 -27
-5 7 -20 1 -19 -20 2 -16 16 -16 16 -10 -5 5 -15 3 -22 -6 -22 -8 -1 -6 -6 6
-15 10 -8 15 -19 10 -26 -5 -8 -3 -10 6 -4 10 6 12 4 7 -8 -3 -9 -2 -19 3 -22
6 -4 10 -1 10 5 0 6 4 9 9 5 6 -3 8 4 6 15 -3 15 1 20 19 20 12 0 28 -6 35
-12 11 -11 12 -10 6 1 -5 9 -4 12 3 7 7 -4 12 -14 12 -22 0 -10 -5 -12 -12 -8
-9 5 -8 2 1 -9 9 -12 26 -17 50 -16 20 2 46 -3 58 -9 12 -7 32 -12 44 -12 21
0 21 -1 6 -12 -14 -11 -3 -13 69 -15 76 -1 91 1 125 23 22 13 39 20 39 14 0
-6 10 -8 25 -4 16 4 30 0 41 -10 14 -15 13 -17 -18 -30 -89 -36 -554 -41 -592
-6 -4 5 0 7 10 7 11 -1 19 4 19 13 0 8 -8 15 -17 15 -9 0 -24 9 -33 20 l-17
20 8 -20 c17 -47 11 -60 -26 -59 -19 1 -55 7 -79 13 -35 9 -46 9 -52 -1 -7
-10 -11 -10 -21 0 -6 6 -16 12 -20 12 -5 0 6 -13 24 -30 25 -22 29 -29 16 -30
-10 0 -18 5 -18 10 0 6 -5 10 -11 10 -5 0 -7 -5 -3 -11 4 -8 -5 -9 -32 -5 -55
8 -176 17 -264 20 -84 3 -205 37 -310 88 -72 35 -150 87 -150 100 0 5 5 6 11
2 6 -3 34 -8 62 -10 29 -2 65 -9 80 -15 43 -18 204 -7 245 17 19 10 47 27 64
36 17 9 34 22 38 28 4 6 22 12 41 14 36 3 62 11 92 27 11 6 22 8 25 5 3 -3 1
-6 -5 -6 -6 0 -13 -7 -17 -15 -9 -24 8 -17 43 17 28 28 34 30 42 16 5 -9 17
-15 27 -13 9 2 20 4 25 4 4 1 7 8 7 16 0 11 7 14 25 11 15 -3 23 -1 19 5 -3 5
0 17 7 26 12 14 14 13 20 -8 7 -23 7 -23 8 4 1 15 5 27 10 27 5 0 14 -12 19
-27 l10 -28 1 33 c1 17 6 32 11 32 6 0 9 -4 8 -9 -3 -9 2 -11 21 -11 5 0 7 10
4 21 -5 19 -3 21 20 15 18 -4 27 -2 27 5 0 8 4 8 15 -1 12 -10 15 -10 15 3 0
8 9 17 20 20 11 3 20 1 20 -4 0 -5 12 -4 28 2 15 6 44 12 65 14 21 2 44 8 52
15 8 6 18 9 24 6 5 -4 16 1 24 9 78 77 167 128 167 95z"/>
</g>
</svg>
